<?xml version="1.0" encoding="UTF-8"?>
<svg id="Vektorebene" xmlns="http://www.w3.org/2000/svg" viewBox="0 0 602.73 411.25">
  <defs>
    <style>
      .cls-1 {
        fill: #445db2;
      }

      .cls-1, .cls-2 {
        stroke-width: 0px;
      }

      .cls-2 {
        fill: #fff;
      }
    </style>
  </defs>
  <path class="cls-2" d="M204.09,250.12c2.3-12.43,9.68-23.06,17.22-32.9,6.65-8.9,13.9-18.06,22.95-24.63,26.13-19.95,62.44-27.53,93.34-14.72,12.41,5.38,23,14.27,33.2,22.98,8.06,7.76,13.78,17.93,20.41,26.72-10.52-3.33-19.65-9.37-29.18-14.76-8.55-4.14-16.87-8.67-25.3-13.04-26.25-13.1-61.53-9.22-87.74,2.39-11.91,5.51-21.4,14.67-30.48,23.94-6.32,7-11.87,15.08-14.44,24.02Z"/>
  <path class="cls-1" d="M301.6,259.38c-29.63-1.52-38.77-33.01-25.43-56.31,1.76-3.41,4.14-6.4,6.88-9.06.65-.63,2.87-2.92,4.26-2.67.25.04.89.11.86.49-.04.07-.06-.03-.07-.06-1.76-1.09-3.95,2.4-4.98,3.7-5.68,8.99-6.09,21.78-.72,30.97,3.67,4.85,7.65,8.49,13.07,10.73,6.48,1.08,13.52,1.62,20.02.57,10.87-4.21,13.47-16.81,13.34-27.29-.04-3.81-2.33-7.07-4.07-10.2,10.68,1.3,15.89,9.93,16.53,20.01,2.59,13.16-3.84,26-14.35,33.81-7.25,5.35-16.62,6.24-25.34,5.29Z"/>
</svg>